<?xml version="1.0" encoding="UTF-8" standalone="no"?>
<svg
   viewBox="0 0 408.52603 84.962082"
   aria-labelledby="logo-header"
   class="icon"
   version="1.1"
   id="svg1"
   sodipodi:docname="logohullsanity.svg"
   inkscape:version="1.3.2 (091e20e, 2023-11-25, custom)"
   width="408.52603"
   height="84.962082"
   xmlns:inkscape="http://www.inkscape.org/namespaces/inkscape"
   xmlns:sodipodi="http://sodipodi.sourceforge.net/DTD/sodipodi-0.dtd"
   xmlns="http://www.w3.org/2000/svg"
   xmlns:svg="http://www.w3.org/2000/svg"><defs
   id="defs1" />
<sodipodi:namedview
   id="namedview1"
   pagecolor="#505050"
   bordercolor="#ffffff"
   borderopacity="1"
   inkscape:showpageshadow="0"
   inkscape:pageopacity="0"
   inkscape:pagecheckerboard="1"
   inkscape:deskcolor="#505050"
   inkscape:zoom="4.2308556"
   inkscape:cx="115.934"
   inkscape:cy="-52.826195"
   inkscape:window-width="3840"
   inkscape:window-height="2054"
   inkscape:window-x="-11"
   inkscape:window-y="-11"
   inkscape:window-maximized="1"
   inkscape:current-layer="svg1" />
<title
   id="logo-header">Logo</title>
<path
   d="m 8.360712,12.553504 c 10.478328,5.971175 17.589062,17.161306 17.589062,29.996777 0,12.788884 -7.233671,24.12272 -17.589062,30.000149 z M 0,0.517124 v 0 83.883596 C 2.9944,83.74393 5.739166,82.89628 8.360712,81.76795 23.70546,75.1832 34.310655,59.998444 34.310655,42.456537 34.310655,24.68391 23.582522,9.497465 8.360712,3.009109 5.739166,2.021679 2.9944,1.17543 0,0.423097 Z M 51.479819,83.97409 V 0.987319 H 43.120062 V 83.97409 Z M 69.762722,42.550281 c 3.244655,3.103196 8.734746,7.33472 8.734746,15.567612 0,9.919207 -8.10041,18.008397 -18.210485,18.008397 v 8.36986 c 14.724446,0 26.574733,-11.85029 26.574733,-26.378257 0,-4.518377 -1.122716,-8.750466 -2.374544,-10.959413 -2.492438,-4.984308 -5.490093,-7.85229 -8.600024,-10.43847 -5.372205,-4.513325 -7.24153,-8.086378 -7.24153,-12.835476 0,-8.321585 6.736307,-15.044982 15.100558,-15.044982 V 0.517124 c -12.97301,0 -23.459193,10.437629 -23.459193,23.36741 0,5.830276 2.498046,11.942352 9.475739,18.665747 z M 126.23544,8.980454 v -8.46333 c -2.99766,0.752334 -5.73709,1.598639 -8.23514,2.585957 -15.21844,6.488131 -26.075125,21.674575 -26.075125,39.4472 0,17.537982 10.733185,32.728359 26.075125,39.307479 2.49805,1.13395 5.23748,1.97599 8.23514,2.63839 v -8.60563 c -3.36816,-0.98799 -5.60798,-2.25666 -8.23514,-3.34009 -10.47496,-5.877429 -17.71649,-17.211265 -17.71649,-30.000149 0,-12.835471 7.11242,-24.025602 17.71649,-29.996777 2.62716,-1.598751 5.61359,-2.491873 8.23514,-3.57305 z M 166.49049,0 c -23.58831,0 -42.67451,19.042251 -42.67451,42.550281 0,23.3705 19.0862,42.411799 42.67451,42.411799 23.57707,0 42.66329,-19.041299 42.66329,-42.411799 C 209.15378,19.042251 190.06756,0 166.49049,0 Z m 0,8.322541 c 18.95709,0 34.30464,15.326783 34.30464,34.22774 0,18.902083 -15.34755,34.092459 -34.30464,34.092459 -18.96832,0 -34.31026,-15.190376 -34.31026,-34.092459 0,-18.900957 15.34194,-34.22774 34.31026,-34.22774 z m 59.82966,0.51645 c 4.8782,0 8.86385,3.996314 8.86385,8.83916 0,4.842284 -3.98565,8.697695 -8.86385,8.697695 z m -1.62236,-7.851672 h -6.73068 V 84.49615 c 2.74504,0 5.4901,-0.44908 8.35304,-1.12833 14.60093,-3.76672 25.45761,-17.166359 25.45761,-33.106707 0,-9.826591 -4.23823,-18.66575 -10.85668,-24.872136 1.24624,-2.256664 1.99843,-4.983185 1.99843,-7.710265 0,-9.21527 -6.9889,-16.691393 -18.22172,-16.691393 z m 10.3571,30.373395 c 5.49009,5.594504 8.36424,12.177 8.36424,19.135605 0,11.332155 -7.2415,20.925781 -17.09898,24.406211 V 34.228696 c 3.00324,-0.471539 5.61921,-1.12833 8.73474,-2.867982 z M 294.27265,83.97409 V 67.425223 h 4.10355 v -7.853414 h -4.10355 V 20.405792 c 0,-7.335276 -0.75223,-10.344161 -3.11554,-13.822903 C 288.13698,2.35086 283.4272,0 277.53853,0 c -6.47245,0 -11.93448,3.24415 -14.70199,8.698651 -1.37533,2.867423 -1.87493,5.594505 -1.87493,12.31846 v 38.554698 h -4.12036 v 7.853414 h 4.12036 V 83.97409 h 8.36425 V 67.425223 h 16.59938 V 83.97409 Z M 285.92524,59.571809 H 269.32586 V 17.067391 c 0,-5.642219 3.48602,-9.35617 8.72914,-9.35617 4.85011,0 7.87024,3.619643 7.87024,9.215269 z M 313.93707,8.839552 c 4.85574,0 8.86382,3.996316 8.86382,8.83916 0,4.842281 -4.00808,8.697694 -8.86382,8.697694 z m -1.6055,-7.852233 h -6.74755 V 84.49615 c 2.74504,0 5.4789,-0.44908 8.35305,-1.12833 14.61214,-3.76672 25.46323,-17.166359 25.46323,-33.106707 0,-9.826591 -4.24387,-18.66575 -10.85109,-24.872136 1.22939,-2.256664 1.98165,-4.983185 1.98165,-7.710265 0,-9.21527 -6.97213,-16.691393 -18.19929,-16.691393 z m 10.31779,30.373395 c 5.52373,5.594504 8.39793,12.177 8.39793,19.135605 0,11.332155 -7.25278,20.925781 -17.11022,24.406211 V 34.228696 c 3.01448,-0.471539 5.60796,-1.12833 8.71229,-2.867982 z m 50.89282,52.613376 v -7.8478 h -16.5938 V 25.483285 h 20.83765 v -7.804573 h -20.83765 v -8.83916 h 16.5938 V 0.987319 h -24.9524 v 16.691393 h -4.14847 v 7.804573 h 4.14847 V 83.97409 Z m 17.92416,-41.423809 c 3.19417,3.103196 8.7123,7.33472 8.7123,15.567612 0,9.919207 -8.10603,18.008397 -18.19925,18.008397 v 8.36986 c 14.71321,0 26.54665,-11.85029 26.54665,-26.378257 0,-4.518377 -1.12273,-8.750466 -2.35209,-10.959413 -2.49808,-4.984308 -5.52379,-7.85229 -8.63371,-10.43847 -5.3778,-4.513325 -7.20783,-8.086378 -7.20783,-12.835476 0,-8.321585 6.74192,-15.044982 15.0893,-15.044982 V 0.517124 c -12.973,0 -23.44232,10.437629 -23.44232,23.36741 0,5.830276 2.45312,11.942352 9.48695,18.665747 z"
   id="path1"
   style="stroke-width:5.6136" />
{color}
     &gt;
    </svg>
